<?xml version="1.0" encoding="UTF-8" standalone="no"?>
<!-- Generator: Adobe Illustrator 17.1.0, SVG Export Plug-In . SVG Version: 6.00 Build 0)  -->

<svg
   xmlns:dc="http://purl.org/dc/elements/1.1/"
   xmlns:cc="http://creativecommons.org/ns#"
   xmlns:rdf="http://www.w3.org/1999/02/22-rdf-syntax-ns#"
   xmlns:svg="http://www.w3.org/2000/svg"
   xmlns="http://www.w3.org/2000/svg"
   xmlns:sodipodi="http://sodipodi.sourceforge.net/DTD/sodipodi-0.dtd"
   xmlns:inkscape="http://www.inkscape.org/namespaces/inkscape"
   version="1.1"
   id="Layer_1"
   x="0px"
   y="0px"
   width="314px"
   height="155px"
   viewBox="0 0 314 155"
   enable-background="new 0 0 314 155"
   xml:space="preserve"
   inkscape:version="0.91 r13725"
   sodipodi:docname="logo.svg"><metadata
     id="metadata119"><rdf:RDF><cc:Work
         rdf:about=""><dc:format>image/svg+xml</dc:format><dc:type
           rdf:resource="http://purl.org/dc/dcmitype/StillImage" /><dc:title /></cc:Work></rdf:RDF></metadata><defs
     id="defs117" /><sodipodi:namedview
     pagecolor="#ffffff"
     bordercolor="#666666"
     borderopacity="1"
     objecttolerance="10"
     gridtolerance="10"
     guidetolerance="10"
     inkscape:pageopacity="0"
     inkscape:pageshadow="2"
     inkscape:window-width="1440"
     inkscape:window-height="826"
     id="namedview115"
     showgrid="false"
     inkscape:zoom="2.312102"
     inkscape:cx="154.27553"
     inkscape:cy="68.233015"
     inkscape:window-x="0"
     inkscape:window-y="0"
     inkscape:window-maximized="0"
     inkscape:current-layer="text4247" /><g
     id="g3"><polygon
       fill="#007481"
       points="91.856,25.629 91.856,20.283 36.257,20.283 29.338,20.283 29.338,25.629 36.257,25.629    36.257,65.183 47.326,65.183 47.326,70.554 36.257,70.554 36.257,75.908 91.856,75.908 91.856,31 75.586,31 75.586,25.629  "
       id="polygon5" /><g
       id="g7"><polygon
         fill="#007481"
         points="136.08,65.183 154.195,65.183 154.195,20.283 98.597,20.283 98.597,25.629 126.426,25.629     126.426,31 98.597,31 98.597,75.908 154.195,75.908 154.195,70.554 136.08,70.554   "
         id="polygon9" /><polygon
         fill="#007481"
         points="253.61,25.629 278.882,25.629 278.882,20.283 223.284,20.283 223.284,75.908 278.882,75.908     278.882,31 253.61,31   "
         id="polygon11" /><g
         id="g13"><polygon
           fill="#007481"
           points="160.94,20.283 160.94,65.183 168.447,65.183 168.447,70.554 160.94,70.554 160.94,75.908      216.539,75.908 216.539,20.283    "
           id="polygon15" /></g></g><rect
       x="69.594"
       y="31.017"
       fill="#E75300"
       width="25.934"
       height="11.601"
       id="rect17" /><rect
       x="157.57"
       y="31.017"
       fill="#6CACB3"
       width="127.029"
       height="11.601"
       id="rect19" /><rect
       x="157.57"
       y="31.017"
       fill="#EDAA00"
       width="76.461"
       height="11.601"
       id="rect21" /><rect
       x="16.981"
       y="31.017"
       fill="#EDAA00"
       width="41.598"
       height="11.601"
       id="rect23" /><g
       id="g25"><g
         id="g27"><g
           id="g29"><g
             id="g31"><path
               fill="#FFFFFF"
               d="M268.135,53.586h-34.104V42.597h34.104V53.586z"
               id="path33" /></g></g></g><path
         fill="#FFFFFF"
         d="M81.122,53.604H69.591v11.571H58.588V53.604H47V42.605h11.588V31.017h11.002v11.588h11.531V53.604z"
         id="path35" /></g><rect
       x="36.257"
       y="25.629"
       fill="#6CACB3"
       width="39.329"
       height="5.389"
       id="rect37" /><rect
       x="216.452"
       y="25.629"
       fill="#E75300"
       width="37.157"
       height="5.389"
       id="rect39" /><rect
       x="84.937"
       y="20.283"
       fill="#6CACB3"
       width="6.919"
       height="5.345"
       id="rect41" /><rect
       x="137.361"
       y="20.283"
       fill="#EDAA00"
       width="71.244"
       height="5.345"
       id="rect43" /><rect
       x="36.257"
       y="70.563"
       fill="#6CACB3"
       width="6.919"
       height="5.345"
       id="rect45" /><rect
       x="91.864"
       y="70.563"
       fill="#6CACB3"
       width="44.216"
       height="5.345"
       id="rect47" /><rect
       x="84.937"
       y="31.017"
       fill="#6CACB3"
       width="13.66"
       height="5.345"
       id="rect49" /><rect
       x="143.91"
       y="31.017"
       fill="#E75300"
       width="13.66"
       height="5.345"
       id="rect51" /><rect
       x="32.646"
       y="53.573"
       fill="#E75300"
       width="25.934"
       height="11.601"
       id="rect53" /><rect
       x="69.594"
       y="53.573"
       fill="#EDAA00"
       width="88.03"
       height="11.601"
       id="rect55" /><rect
       x="29.578"
       y="53.573"
       fill="#EDAA00"
       width="13.66"
       height="2.672"
       id="rect57" /><path
       fill="#FFFFFF"
       d="M126.391,61.256c-12.138,0-21.979-13.164-21.979-13.164s9.84-13.147,21.979-13.147   c12.139,0,21.979,13.147,21.979,13.147S138.53,61.256,126.391,61.256z"
       id="path59" /><path
       fill="#E75300"
       d="M132.467,48.091c0,3.373-2.717,6.076-6.076,6.076c-3.342,0-6.067-2.703-6.067-6.076   c0-3.328,2.725-6.049,6.067-6.049C129.751,42.042,132.467,44.763,132.467,48.091z"
       id="path61" /><rect
       x="47.322"
       y="65.174"
       fill="#6CACB3"
       width="44.543"
       height="5.389"
       id="rect63" /><rect
       x="208.609"
       y="65.174"
       fill="#6CACB3"
       width="30.114"
       height="5.389"
       id="rect65" /><rect
       x="274.309"
       y="39.946"
       fill="#EDAA00"
       width="13.66"
       height="2.672"
       id="rect67" /><rect
       x="268.135"
       y="58.914"
       fill="#E75300"
       width="29.932"
       height="11.601"
       id="rect69" /><rect
       x="253.609"
       y="58.914"
       fill="#EDAA00"
       width="14.526"
       height="11.601"
       id="rect71" /><rect
       x="238.723"
       y="70.515"
       fill="#6CACB3"
       width="40.068"
       height="5.389"
       id="rect73" /><rect
       x="184.082"
       y="53.586"
       fill="#6CACB3"
       width="35.786"
       height="5.345"
       id="rect75" /><path
       fill="#FFFFFF"
       d="M192.253,56.272L184.5,64.03l-7.771-7.758l-7.859-7.881l7.762-7.758l7.868,7.881l16.325-16.343l7.784,7.758   L192.253,56.272z"
       id="path77" /><rect
       x="202.879"
       y="67.869"
       fill="#E75300"
       width="13.66"
       height="2.672"
       id="rect79" /><g
       id="g81"><path
         fill="#007481"
         d="M175.118,99.51v7.149c-2.012,1.086-3.892,1.642-5.905,1.642c-5.322,0-7.732-3.257-7.732-8.923    c0-6.01,3.654-8.791,8.605-8.791c1.8,0,3.125,0.292,5.004,1.165l-1.456,3.813c-1.43-1.138-2.357-1.509-3.734-1.509    c-2.489,0-3.892,1.404-3.892,5.27c0,4.078,1.509,5.534,4.077,5.534c0.292,0,0.556,0,0.847-0.053V99.51H175.118z"
         id="path83" /><path
         fill="#007481"
         d="M190.716,103.587l1.06,3.23c-1.695,0.927-3.23,1.482-5.799,1.482c-3.416,0-6.858-1.827-6.858-6.778    c0-4.104,3.045-6.619,6.407-6.619c3.601,0,6.302,1.774,6.302,6.911c0,0.291,0,0.582-0.026,0.9h-8.341    c0.45,1.933,2.039,2.33,3.521,2.33C188.121,105.043,189.63,104.461,190.716,103.587z M187.592,100.145    c0.106-1.721-0.874-2.33-1.933-2.33c-1.429,0-2.091,0.609-2.277,2.33H187.592z"
         id="path85" /><path
         fill="#007481"
         d="M200.648,108.036h-4.21V95.3h3.839l0.079,1.88c1.298-1.668,2.966-2.277,4.608-2.277    c2.277,0,4.263,1.271,4.263,4.528v8.605h-4.21v-7.255c0-1.748-0.794-2.065-1.721-2.065s-1.986,0.583-2.648,1.351V108.036z"
         id="path87" /><path
         fill="#007481"
         d="M222.204,95.3h4.21v12.736h-3.707l-0.212-2.012c-1.297,1.668-2.886,2.277-4.528,2.277    c-2.277,0-4.263-0.953-4.263-4.528V95.3h4.21v7.388c0,1.8,0.689,2.118,1.483,2.118c0.927,0,2.065-0.794,2.806-1.668V95.3z"
         id="path89" /><path
         fill="#007481"
         d="M231.208,104.752h3.893v-6.169h-3.893V95.3h8.103v9.453h4.025v3.283h-12.127V104.752z M237.245,88.812    c1.298,0,2.357,1.06,2.357,2.357c0,1.298-1.059,2.33-2.357,2.33c-1.297,0-2.33-1.033-2.33-2.33    C234.916,89.872,235.948,88.812,237.245,88.812z"
         id="path91" /><path
         fill="#007481"
         d="M252.287,108.036h-4.21V95.3h3.839l0.079,1.88c1.298-1.668,2.966-2.277,4.608-2.277    c2.277,0,4.263,1.271,4.263,4.528v8.605h-4.21v-7.255c0-1.748-0.794-2.065-1.721-2.065c-0.927,0-1.986,0.583-2.648,1.351V108.036z    "
         id="path93" /><path
         fill="#007481"
         d="M271.725,94.903c4.475,0,6.911,2.754,6.911,6.672c0,3.734-2.542,6.725-6.885,6.725    c-4.316,0-6.99-2.542-6.99-6.725C264.761,97.842,267.515,94.903,271.725,94.903z M271.619,105.043    c2.119,0,2.595-1.085,2.595-3.495c0-1.853-0.476-3.389-2.595-3.389c-1.827,0-2.436,1.271-2.436,3.389    C269.183,103.905,269.977,105.043,271.619,105.043z"
         id="path95" /></g><g
       id="g97"><path
         fill="#AD8E78"
         d="M161.508,117.017h5.64c6.434,0,8.579,3.045,8.579,8.447c0,4.077-1.244,8.764-8.552,8.764h-5.667V117.017z     M165.771,120.486v10.221h1.615c3.521,0,3.787-2.145,3.787-5.057c0-3.363-0.345-5.163-4.157-5.163H165.771z"
         id="path99" /><path
         fill="#AD8E78"
         d="M177.795,134.228l5.402-17.211h4.792l5.481,17.211h-4.528l-0.953-3.522h-4.952l-0.874,3.522H177.795z     M185.42,121.095l-1.562,6.302h3.257L185.42,121.095z"
         id="path101" /><path
         fill="#AD8E78"
         d="M203.137,124.06l3.045-7.043h4.263l-5.375,10.406v6.805h-4.263v-6.673l-5.561-10.538h4.608L203.137,124.06    z"
         id="path103" /></g><g
       id="g105"><path
         fill="#E75300"
         d="M223.438,121.598c0-1.959-1.351-3.018-3.072-3.018c-1.324,0-2.727,0.794-3.654,1.827l-1.112-1.377    c0.847-0.927,2.754-2.251,5.19-2.251c2.674,0,4.819,1.589,4.819,4.581c0,3.521-4.66,8.447-8.128,11.041h8.949v1.827H214.78v-1.483    C217.984,130.442,223.438,124.987,223.438,121.598z"
         id="path107" /><path
         fill="#E75300"
         d="M244.385,125.172c0,4.21-1.138,9.32-6.699,9.32c-4.369,0-6.46-3.045-6.46-8.526    c0-4.899,1.456-9.188,6.646-9.188C242.558,116.779,244.385,120.036,244.385,125.172z M234.641,131.316l5.11-12.313    c-0.556-0.265-1.218-0.423-2.039-0.423c-3.521,0-4.342,3.442-4.342,6.805C233.37,127.661,233.555,129.912,234.641,131.316z     M242.24,125.464c0-2.039-0.186-4.21-1.324-5.561l-5.137,12.366c0.556,0.291,1.244,0.45,2.091,0.45    C241.552,132.719,242.24,128.906,242.24,125.464z"
         id="path109" /><path
         fill="#E75300"
         d="M249.286,132.401h4.845v-13.636l-3.865,0.185v-1.853l5.958-0.292v15.596h4.554v1.827h-11.491V132.401z"
         id="path111" /><path
         fill="#E75300"
         d="M272.377,134.493c-4.449,0-6.038-3.336-6.038-8.208c0-5.958,3.496-9.48,9.162-9.48    c0.583,0,1.192,0.026,1.827,0.106v1.906c-0.635-0.106-1.244-0.159-1.853-0.159c-3.68,0-6.699,2.039-6.937,6.54    c1.244-0.821,2.674-1.376,4.475-1.376c2.86,0,5.11,1.589,5.11,4.819C278.123,132.137,276.031,134.493,272.377,134.493z     M272.324,125.596c-1.562,0-2.965,0.689-3.839,1.403c0.053,3.072,0.821,5.719,4.104,5.719c2.41,0,3.389-1.827,3.389-3.733    C275.978,126.629,274.839,125.596,272.324,125.596z"
         id="path113" /></g></g><g
     transform="scale(0.99839602,1.0016066)"
     style="font-style:normal;font-variant:normal;font-weight:normal;font-stretch:normal;font-size:35px;line-height:100%;font-family:'Courier New';-inkscape-font-specification:'Courier New, Normal';text-align:start;letter-spacing:0px;word-spacing:0px;writing-mode:lr-tb;text-anchor:start;fill:#50a8a1;fill-opacity:1;stroke:none;stroke-width:1px;stroke-linecap:butt;stroke-linejoin:miter;stroke-opacity:1"
     id="text4247"><path
       d="m 48.2915,122.09055 q -1.42334,0.73853 -2.967529,1.11451 -1.54419,0.37597 -3.222656,0.37597 -5.008545,0 -7.935791,-2.79297 -2.927247,-2.80639 -2.927247,-7.60009 0,-4.80713 2.927247,-7.6001 2.927246,-2.8064 7.935791,-2.8064 1.678466,0 3.222656,0.37598 1.544189,0.37597 2.967529,1.1145 l 0,4.14917 q -1.436767,-0.98022 -2.833252,-1.43677 -1.396484,-0.45654 -2.940674,-0.45654 -2.766113,0 -4.350586,1.77246 -1.584472,1.77246 -1.584472,4.8877 0,3.1018 1.584472,4.87426 1.584473,1.77246 4.350586,1.77246 1.54419,0 2.940674,-0.45654 1.396485,-0.45654 2.833252,-1.43677 l 0,4.14917 z"
       style="font-style:normal;font-variant:normal;font-weight:bold;font-stretch:normal;font-size:27.5px;line-height:100%;font-family:sans-serif;-inkscape-font-specification:'sans-serif, Bold';text-align:start;writing-mode:lr-tb;text-anchor:start;fill:#50a8a1;fill-opacity:1"
       id="path3391" /><path
       d="m 59.060543,116.42405 q -1.503906,0 -2.269287,0.51025 -0.751953,0.51026 -0.751953,1.50391 0,0.91309 0.604248,1.43677 0.617676,0.51025 1.705322,0.51025 1.356201,0 2.282715,-0.9668 0.926514,-0.98022 0.926514,-2.44384 l 0,-0.55054 -2.497559,0 z m 7.344971,-1.81274 0,8.58032 -4.847412,0 0,-2.22901 q -0.966797,1.36963 -2.175293,2.00074 -1.208496,0.61767 -2.940674,0.61767 -2.336426,0 -3.800049,-1.3562 -1.450195,-1.36963 -1.450195,-3.54492 0,-2.64526 1.812744,-3.88062 1.826172,-1.23535 5.720215,-1.23535 l 2.833252,0 0,-0.37597 q 0,-1.14136 -0.899659,-1.66504 -0.899658,-0.53711 -2.806396,-0.53711 -1.544189,0 -2.873535,0.30883 -1.329346,0.30884 -2.470703,0.92652 l 0,-3.66577 q 1.544189,-0.37598 3.101806,-0.56397 1.557618,-0.20141 3.115235,-0.20141 4.068603,0 5.86792,1.61132 1.812744,1.5979 1.812744,5.20997 z m -5.209961,-13.41431 3.800049,0 -4.954834,5.04883 -2.631836,0 3.786621,-5.04883 z"
       style="font-style:normal;font-variant:normal;font-weight:bold;font-stretch:normal;font-size:27.5px;line-height:100%;font-family:sans-serif;-inkscape-font-specification:'sans-serif, Bold';text-align:start;writing-mode:lr-tb;text-anchor:start;fill:#50a8a1;fill-opacity:1"
       id="path3393" /><path
       d="m 83.002193,108.62254 0,3.92089 q -0.980224,-0.67138 -1.973877,-0.99365 -0.980224,-0.32226 -2.041015,-0.32226 -2.01416,0 -3.14209,1.18164 -1.114502,1.16821 -1.114502,3.27636 0,2.10816 1.114502,3.2898 1.12793,1.16821 3.14209,1.16821 1.12793,0 2.13501,-0.33569 1.020507,-0.33569 1.879882,-0.99365 l 0,3.93432 q -1.127929,0.41626 -2.296142,0.61768 -1.154785,0.21484 -2.322998,0.21484 -4.068604,0 -6.364746,-2.0813 -2.296143,-2.09472 -2.296143,-5.81421 0,-3.71948 2.296143,-5.80078 2.296142,-2.09472 6.364746,-2.09472 1.18164,0 2.322998,0.21484 1.154785,0.20142 2.296142,0.61768 z"
       style="font-style:normal;font-variant:normal;font-weight:bold;font-stretch:normal;font-size:27.5px;line-height:100%;font-family:sans-serif;-inkscape-font-specification:'sans-serif, Bold';text-align:start;writing-mode:lr-tb;text-anchor:start;fill:#50a8a1;fill-opacity:1"
       id="path3395" /><path
       d="m 102.19043,115.63181 0,1.36963 -11.239018,0 q 0.174561,1.6919 1.221924,2.53784 1.047363,0.84595 2.927246,0.84595 1.517334,0 3.101807,-0.44311 1.5979,-0.45655 3.276371,-1.36963 l 0,3.70605 q -1.705326,0.64453 -3.410649,0.9668 -1.705322,0.33569 -3.410644,0.33569 -4.082031,0 -6.351318,-2.06787 -2.25586,-2.0813 -2.25586,-5.82764 0,-3.6792 2.215576,-5.78735 2.229004,-2.10815 6.123047,-2.10815 3.544922,0 5.666508,2.13501 2.13501,2.13501 2.13501,5.70678 z m -4.94141,-1.5979 q 0,-1.36963 -0.805664,-2.20215 -0.792237,-0.84594 -2.081299,-0.84594 -1.396485,0 -2.269287,0.79223 -0.872803,0.77881 -1.087647,2.25586 l 6.243897,0 z"
       style="font-style:normal;font-variant:normal;font-weight:bold;font-stretch:normal;font-size:27.5px;line-height:100%;font-family:sans-serif;-inkscape-font-specification:'sans-serif, Bold';text-align:start;writing-mode:lr-tb;text-anchor:start;fill:#50a8a1;fill-opacity:1"
       id="path3397" /><path
       d="m 117.0415,112.24802 q -0.6311,-0.29541 -1.26221,-0.42968 -0.61767,-0.14771 -1.24878,-0.14771 -1.85302,0 -2.8601,1.19507 -0.99366,1.18164 -0.99366,3.39722 l 0,6.92871 -4.80712,0 0,-15.03906 4.80712,0 0,2.4707 q 0.92652,-1.47705 2.12159,-2.14844 1.20849,-0.68481 2.88696,-0.68481 0.2417,0 0.52368,0.0268 0.28198,0.0134 0.81909,0.0806 l 0.0134,4.35058 z"
       style="font-style:normal;font-variant:normal;font-weight:bold;font-stretch:normal;font-size:27.5px;line-height:100%;font-family:sans-serif;-inkscape-font-specification:'sans-serif, Bold';text-align:start;writing-mode:lr-tb;text-anchor:start;fill:#50a8a1;fill-opacity:1"
       id="path3399" /><path
       d="m 134.4707,115.63181 0,1.36963 -11.23901,0 q 0.17456,1.6919 1.22192,2.53784 1.04736,0.84595 2.92725,0.84595 1.51733,0 3.1018,-0.44311 1.5979,-0.45655 3.27637,-1.36963 l 0,3.70605 q -1.70532,0.64453 -3.41065,0.9668 -1.70532,0.33569 -3.41064,0.33569 -4.08203,0 -6.35132,-2.06787 -2.25586,-2.0813 -2.25586,-5.82764 0,-3.6792 2.21558,-5.78735 2.229,-2.10815 6.12305,-2.10815 3.54492,0 5.6665,2.13501 2.13501,2.13501 2.13501,5.70678 z m -4.94141,-1.5979 q 0,-1.36963 -0.80566,-2.20215 -0.79224,-0.84594 -2.0813,-0.84594 -1.39648,0 -2.26929,0.79223 -0.8728,0.77881 -1.08764,2.25586 l 6.24389,0 z"
       style="font-style:normal;font-variant:normal;font-weight:bold;font-stretch:normal;font-size:27.5px;line-height:100%;font-family:sans-serif;-inkscape-font-specification:'sans-serif, Bold';text-align:start;writing-mode:lr-tb;text-anchor:start;fill:#50a8a1;fill-opacity:1"
       id="path3401" /><path
       d="m 149.89917,108.62254 0,3.65234 q -1.54419,-0.64453 -2.98096,-0.9668 -1.43677,-0.32226 -2.7124,-0.32226 -1.36963,0 -2.04102,0.34912 -0.65796,0.33569 -0.65796,1.04736 0,0.57739 0.49683,0.88623 0.51025,0.30884 1.81274,0.45654 l 0.84595,0.12085 q 3.69263,0.46998 4.96826,1.54419 1.27564,1.07422 1.27564,3.37037 0,2.40356 -1.77246,3.61206 -1.77247,1.20849 -5.29053,1.20849 -1.49048,0 -3.08838,-0.2417 -1.58447,-0.22827 -3.26294,-0.69824 l 0,-3.65234 q 1.43677,0.69824 2.94067,1.04736 1.51734,0.34912 3.07495,0.34912 1.40992,0 2.12159,-0.3894 0.71167,-0.38941 0.71167,-1.15479 0,-0.64453 -0.49683,-0.95337 -0.4834,-0.32226 -1.94702,-0.49682 l -0.84595,-0.10743 q -3.20923,-0.40283 -4.49829,-1.49047 -1.28906,-1.08765 -1.28906,-3.30323 0,-2.39013 1.63818,-3.54492 1.63819,-1.15478 5.02197,-1.15478 1.32935,0 2.79297,0.20141 1.46363,0.20142 3.18238,0.63111 z"
       style="font-style:normal;font-variant:normal;font-weight:bold;font-stretch:normal;font-size:27.5px;line-height:100%;font-family:sans-serif;-inkscape-font-specification:'sans-serif, Bold';text-align:start;writing-mode:lr-tb;text-anchor:start;fill:#50a8a1;fill-opacity:1"
       id="path3403" /></g></svg>